# 3ds Max Wavefront OBJ Exporter v0.99 - (c)2007 guruware
# File Created: 11.05.2023 15:49:37

mtllib Arrow.mtl

#
# object TextPlus001
#

v  6.6325 0.0000 -8.4344
v  -3.9425 0.0000 -12.9094
v  -3.9425 6.0000 -12.9094
v  6.6325 6.0000 -8.4344
v  -3.9425 0.0000 -10.9344
v  -3.9425 6.0000 -10.9344
v  4.3825 0.0000 -7.4969
v  4.3825 6.0000 -7.4969
v  -3.9425 0.0000 -4.0344
v  -3.9425 6.0000 -4.0344
v  -3.9425 0.0000 -2.0594
v  -3.9425 6.0000 -2.0594
v  6.6325 0.0000 -6.5844
v  6.6325 6.0000 -6.5844
# 14 vertices

vn 0.6660 -0.6014 -0.4413
vn -0.4580 -0.5592 -0.6911
vn -0.4580 0.5592 -0.6911
vn 0.6660 0.6014 -0.4413
vn -0.6644 -0.6008 0.4445
vn -0.6644 0.6008 0.4445
vn -0.2137 -0.9769 0.0003
vn -0.2137 0.9769 0.0003
vn -0.6649 -0.6010 -0.4436
vn -0.6649 0.6010 -0.4436
vn -0.4566 -0.5590 0.6921
vn -0.4566 0.5590 0.6921
vn 0.6667 -0.6016 0.4399
vn 0.6667 0.6016 0.4399
# 14 vertex normals

o TextPlus001
g TextPlus001
usemtl wire_028089177
s 2
f 1//1 2//2 3//3 4//4 
s 4
f 2//2 5//5 6//6 3//3 
s 8
f 5//5 7//7 8//8 6//6 
s 16
f 7//7 9//9 10//10 8//8 
s 2
f 9//9 11//11 12//12 10//10 
s 4
f 11//11 13//13 14//14 12//12 
s 9
f 13//13 1//1 4//4 14//14 
s 1024
f 10//10 12//12 14//14 8//8 
f 4//4 3//3 6//6 8//8 
f 4//4 8//8 14//14 
f 9//9 7//7 13//13 11//11 
f 1//1 7//7 5//5 2//2 
f 1//1 13//13 7//7 
# 11 polygons - 2 triangles

