# 3ds Max Wavefront OBJ Exporter v0.99 - (c)2007 guruware
# File Created: 11.05.2023 14:38:58

mtllib Question Mark.mtl

#
# object TextPlus001
#

v  1.4533 0.0000 -5.1697
v  1.4639 0.0000 -5.5456
v  1.4639 1.5000 -5.5456
v  1.4533 1.5000 -5.1697
v  1.4812 0.0000 -5.8850
v  1.4812 1.5000 -5.8850
v  1.5052 0.0000 -6.1879
v  1.5052 1.5000 -6.1879
v  1.5359 0.0000 -6.4543
v  1.5359 1.5000 -6.4543
v  1.5733 0.0000 -6.6842
v  1.5733 1.5000 -6.6842
v  1.6173 0.0000 -6.8777
v  1.6173 1.5000 -6.8777
v  1.6690 0.0000 -7.0495
v  1.6690 1.5000 -7.0495
v  1.7291 0.0000 -7.2147
v  1.7291 1.5000 -7.2147
v  1.7977 0.0000 -7.3731
v  1.7977 1.5000 -7.3731
v  1.8749 0.0000 -7.5249
v  1.8749 1.5000 -7.5249
v  1.9605 0.0000 -7.6700
v  1.9605 1.5000 -7.6700
v  2.0546 0.0000 -7.8083
v  2.0546 1.5000 -7.8083
v  2.1715 0.0000 -7.9558
v  2.1715 1.5000 -7.9558
v  2.3255 0.0000 -8.1283
v  2.3255 1.5000 -8.1283
v  2.5165 0.0000 -8.3256
v  2.5165 1.5000 -8.3256
v  2.7446 0.0000 -8.5479
v  2.7446 1.5000 -8.5479
v  3.0097 0.0000 -8.7952
v  3.0097 1.5000 -8.7952
v  3.3119 0.0000 -9.0673
v  3.3119 1.5000 -9.0673
v  3.7632 0.0000 -9.4801
v  3.7632 1.5000 -9.4801
v  4.1623 0.0000 -9.8716
v  4.1623 1.5000 -9.8716
v  4.5092 0.0000 -10.2418
v  4.5092 1.5000 -10.2418
v  4.8038 0.0000 -10.5908
v  4.8038 1.5000 -10.5908
v  5.0461 0.0000 -10.9184
v  5.0461 1.5000 -10.9184
v  5.2363 0.0000 -11.2247
v  5.2363 1.5000 -11.2247
v  5.3866 0.0000 -11.5250
v  5.3866 1.5000 -11.5250
v  5.5096 0.0000 -11.8344
v  5.5096 1.5000 -11.8344
v  5.6053 0.0000 -12.1530
v  5.6053 1.5000 -12.1530
v  5.6736 0.0000 -12.4806
v  5.6736 1.5000 -12.4806
v  5.7146 0.0000 -12.8175
v  5.7146 1.5000 -12.8175
v  5.7283 0.0000 -13.1634
v  5.7283 1.5000 -13.1634
v  5.6895 0.0000 -13.7546
v  5.6895 1.5000 -13.7546
v  5.5730 0.0000 -14.3160
v  5.5730 1.5000 -14.3160
v  5.3790 0.0000 -14.8475
v  5.3790 1.5000 -14.8475
v  5.1073 0.0000 -15.3493
v  5.1073 1.5000 -15.3493
v  4.7581 0.0000 -15.8212
v  4.7581 1.5000 -15.8212
v  4.3312 0.0000 -16.2632
v  4.3312 1.5000 -16.2632
v  3.8391 0.0000 -16.6548
v  3.8391 1.5000 -16.6548
v  3.2943 0.0000 -16.9751
v  3.2943 1.5000 -16.9751
v  2.6968 0.0000 -17.2243
v  2.6968 1.5000 -17.2243
v  2.0465 0.0000 -17.4023
v  2.0465 1.5000 -17.4023
v  1.3434 0.0000 -17.5091
v  1.3434 1.5000 -17.5091
v  0.5876 0.0000 -17.5447
v  0.5876 1.5000 -17.5447
v  -0.1268 0.0000 -17.5116
v  -0.1268 1.5000 -17.5116
v  -0.7930 0.0000 -17.4122
v  -0.7930 1.5000 -17.4122
v  -1.4110 0.0000 -17.2467
v  -1.4110 1.5000 -17.2467
v  -1.9809 0.0000 -17.0150
v  -1.9809 1.5000 -17.0150
v  -2.5025 0.0000 -16.7170
v  -2.5025 1.5000 -16.7170
v  -2.9758 0.0000 -16.3529
v  -2.9758 1.5000 -16.3529
v  -3.3953 0.0000 -15.9264
v  -3.3953 1.5000 -15.9264
v  -3.7550 0.0000 -15.4417
v  -3.7550 1.5000 -15.4417
v  -4.0550 0.0000 -14.8987
v  -4.0550 1.5000 -14.8987
v  -4.2953 0.0000 -14.2973
v  -4.2953 1.5000 -14.2973
v  -4.4759 0.0000 -13.6376
v  -4.4759 1.5000 -13.6376
v  -4.5967 0.0000 -12.9197
v  -4.5967 1.5000 -12.9197
v  -2.5717 0.0000 -12.6697
v  -2.5717 1.5000 -12.6697
v  -2.4686 0.0000 -13.2031
v  -2.4686 1.5000 -13.2031
v  -2.3334 0.0000 -13.6873
v  -2.3334 1.5000 -13.6873
v  -2.1660 0.0000 -14.1223
v  -2.1660 1.5000 -14.1223
v  -1.9666 0.0000 -14.5080
v  -1.9666 1.5000 -14.5080
v  -1.7351 0.0000 -14.8445
v  -1.7351 1.5000 -14.8445
v  -1.4715 0.0000 -15.1318
v  -1.4715 1.5000 -15.1318
v  -1.1804 0.0000 -15.3725
v  -1.1804 1.5000 -15.3725
v  -0.8663 0.0000 -15.5695
v  -0.8663 1.5000 -15.5695
v  -0.5292 0.0000 -15.7227
v  -0.5292 1.5000 -15.7227
v  -0.1691 0.0000 -15.8321
v  -0.1691 1.5000 -15.8321
v  0.2140 0.0000 -15.8978
v  0.2140 1.5000 -15.8978
v  0.6201 0.0000 -15.9197
v  0.6201 1.5000 -15.9197
v  1.0410 0.0000 -15.8955
v  1.0410 1.5000 -15.8955
v  1.4396 0.0000 -15.8230
v  1.4396 1.5000 -15.8230
v  1.8158 0.0000 -15.7021
v  1.8158 1.5000 -15.7021
v  2.1695 0.0000 -15.5329
v  2.1695 1.5000 -15.5329
v  2.5009 0.0000 -15.3154
v  2.5009 1.5000 -15.3154
v  2.8099 0.0000 -15.0495
v  2.8099 1.5000 -15.0495
v  3.0829 0.0000 -14.7518
v  3.0829 1.5000 -14.7518
v  3.3062 0.0000 -14.4385
v  3.3062 1.5000 -14.4385
v  3.4799 0.0000 -14.1097
v  3.4799 1.5000 -14.1097
v  3.6040 0.0000 -13.7653
v  3.6040 1.5000 -13.7653
v  3.6784 0.0000 -13.4055
v  3.6784 1.5000 -13.4055
v  3.7033 0.0000 -13.0302
v  3.7033 1.5000 -13.0302
v  3.6947 0.0000 -12.8214
v  3.6947 1.5000 -12.8214
v  3.6692 0.0000 -12.6180
v  3.6692 1.5000 -12.6180
v  3.6266 0.0000 -12.4201
v  3.6266 1.5000 -12.4201
v  3.5670 0.0000 -12.2276
v  3.5670 1.5000 -12.2276
v  3.4903 0.0000 -12.0406
v  3.4903 1.5000 -12.0406
v  3.3966 0.0000 -11.8591
v  3.3966 1.5000 -11.8591
v  3.2745 0.0000 -11.6702
v  3.2745 1.5000 -11.6702
v  3.1125 0.0000 -11.4608
v  3.1125 1.5000 -11.4608
v  2.9107 0.0000 -11.2311
v  2.9107 1.5000 -11.2311
v  2.6690 0.0000 -10.9810
v  2.6690 1.5000 -10.9810
v  2.3875 0.0000 -10.7105
v  2.3875 1.5000 -10.7105
v  2.0662 0.0000 -10.4197
v  2.0662 1.5000 -10.4197
v  1.7424 0.0000 -10.1306
v  1.7424 1.5000 -10.1306
v  1.4536 0.0000 -9.8656
v  1.4536 1.5000 -9.8656
v  1.1997 0.0000 -9.6246
v  1.1997 1.5000 -9.6246
v  0.9809 0.0000 -9.4077
v  0.9809 1.5000 -9.4077
v  0.7971 0.0000 -9.2147
v  0.7971 1.5000 -9.2147
v  0.6482 0.0000 -9.0458
v  0.6482 1.5000 -9.0458
v  0.4776 0.0000 -8.8308
v  0.4776 1.5000 -8.8308
v  0.3234 0.0000 -8.6163
v  0.3234 1.5000 -8.6163
v  0.1857 0.0000 -8.4025
v  0.1857 1.5000 -8.4025
v  0.0643 0.0000 -8.1892
v  0.0643 1.5000 -8.1892
v  -0.0406 0.0000 -7.9766
v  -0.0406 1.5000 -7.9766
v  -0.1292 0.0000 -7.7646
v  -0.1292 1.5000 -7.7646
v  -0.2295 0.0000 -7.4748
v  -0.2295 1.5000 -7.4748
v  -0.3117 0.0000 -7.1673
v  -0.3117 1.5000 -7.1673
v  -0.3755 0.0000 -6.8422
v  -0.3755 1.5000 -6.8422
v  -0.4212 0.0000 -6.4995
v  -0.4212 1.5000 -6.4995
v  -0.4486 0.0000 -6.1391
v  -0.4486 1.5000 -6.1391
v  -0.4577 0.0000 -5.7611
v  -0.4577 1.5000 -5.7611
v  -0.4467 0.0000 -5.1697
v  -0.4467 1.5000 -5.1697
v  1.4533 0.0000 -1.2447
v  1.4533 0.0000 -3.4947
v  1.4533 1.5000 -3.4947
v  1.4533 1.5000 -1.2447
v  -0.7967 0.0000 -3.4947
v  -0.7967 1.5000 -3.4947
v  -0.7967 0.0000 -1.2447
v  -0.7967 1.5000 -1.2447
# 230 vertices

vn 0.5684 -0.5789 0.5847
vn 0.7039 -0.7097 0.0279
vn 0.7039 0.7097 0.0279
vn 0.5684 0.5789 0.5847
vn 0.7024 -0.7103 0.0457
vn 0.7024 0.7103 0.0457
vn 0.6998 -0.7111 0.0680
vn 0.6998 0.7111 0.0680
vn 0.6951 -0.7124 0.0965
vn 0.6951 0.7124 0.0965
vn 0.6869 -0.7143 0.1339
vn 0.6869 0.7143 0.1339
vn 0.6761 -0.7149 0.1784
vn 0.6761 0.7149 0.1784
vn 0.6648 -0.7136 0.2207
vn 0.6648 0.7136 0.2207
vn 0.6506 -0.7139 0.2591
vn 0.6506 0.7139 0.2591
vn 0.6335 -0.7141 0.2979
vn 0.6335 0.7141 0.2979
vn 0.6136 -0.7143 0.3366
vn 0.6136 0.7143 0.3366
vn 0.5909 -0.7144 0.3748
vn 0.5909 0.7144 0.3748
vn 0.5630 -0.7154 0.4138
vn 0.5630 0.7154 0.4138
vn 0.5359 -0.7138 0.4509
vn 0.5359 0.7138 0.4509
vn 0.5145 -0.7117 0.4783
vn 0.5145 0.7117 0.4783
vn 0.4985 -0.7104 0.4968
vn 0.4985 0.7104 0.4968
vn 0.4862 -0.7096 0.5100
vn 0.4862 0.7096 0.5100
vn 0.4764 -0.7091 0.5198
vn 0.4764 0.7091 0.5198
vn 0.4758 -0.7063 0.5242
vn 0.4758 0.7063 0.5242
vn 0.4889 -0.7032 0.5162
vn 0.4889 0.7032 0.5162
vn 0.5091 -0.7024 0.4975
vn 0.5091 0.7024 0.4975
vn 0.5326 -0.7013 0.4738
vn 0.5326 0.7013 0.4738
vn 0.5602 -0.6999 0.4430
vn 0.5602 0.6999 0.4430
vn 0.5925 -0.6981 0.4020
vn 0.5925 0.6981 0.4020
vn 0.6259 -0.6970 0.3499
vn 0.6259 0.6970 0.3499
vn 0.6539 -0.6976 0.2930
vn 0.6539 0.6976 0.2930
vn 0.6767 -0.6975 0.2356
vn 0.6767 0.6975 0.2356
vn 0.6945 -0.6975 0.1764
vn 0.6945 0.6975 0.1764
vn 0.7068 -0.6977 0.1165
vn 0.7068 0.6977 0.1165
vn 0.7137 -0.6981 0.0574
vn 0.7137 0.6981 0.0574
vn 0.7185 -0.6955 -0.0094
vn 0.7185 0.6955 -0.0094
vn 0.7155 -0.6918 -0.0972
vn 0.7155 0.6918 -0.0972
vn 0.6952 -0.6911 -0.1978
vn 0.6952 0.6911 -0.1978
vn 0.6591 -0.6910 -0.2968
vn 0.6591 0.6910 -0.2968
vn 0.6094 -0.6916 -0.3878
vn 0.6094 0.6916 -0.3878
vn 0.5504 -0.6927 -0.4660
vn 0.5504 0.6927 -0.4660
vn 0.4850 -0.6927 -0.5338
vn 0.4850 0.6927 -0.5338
vn 0.4089 -0.6916 -0.5953
vn 0.4089 0.6916 -0.5953
vn 0.3226 -0.6921 -0.6457
vn 0.3226 0.6921 -0.6457
vn 0.2344 -0.6930 -0.6818
vn 0.2344 0.6930 -0.6818
vn 0.1493 -0.6942 -0.7041
vn 0.1493 0.6942 -0.7041
vn 0.0709 -0.6956 -0.7149
vn 0.0709 0.6956 -0.7149
vn 0.0003 -0.6968 -0.7173
vn 0.0003 0.6968 -0.7173
vn -0.0697 -0.6958 -0.7148
vn -0.0697 0.6958 -0.7148
vn -0.1463 -0.6945 -0.7044
vn -0.1463 0.6945 -0.7044
vn -0.2294 -0.6934 -0.6831
vn -0.2294 0.6934 -0.6831
vn -0.3155 -0.6925 -0.6488
vn -0.3155 0.6925 -0.6488
vn -0.4000 -0.6920 -0.6009
vn -0.4000 0.6920 -0.6009
vn -0.4786 -0.6920 -0.5405
vn -0.4786 0.6920 -0.5405
vn -0.5486 -0.6919 -0.4694
vn -0.5486 0.6919 -0.4694
vn -0.6068 -0.6924 -0.3903
vn -0.6068 0.6924 -0.3903
vn -0.6511 -0.6934 -0.3085
vn -0.6511 0.6934 -0.3085
vn -0.6820 -0.6947 -0.2288
vn -0.6820 0.6947 -0.2288
vn -0.7012 -0.6960 -0.1546
vn -0.7012 0.6960 -0.1546
vn -0.6559 -0.5751 0.4890
vn -0.6559 0.5751 0.4890
vn 0.4784 -0.5811 0.6584
vn 0.4784 0.5811 0.6584
vn 0.6790 -0.7164 0.1602
vn 0.6790 0.7164 0.1602
vn 0.6608 -0.7179 0.2188
vn 0.6608 0.7179 0.2188
vn 0.6333 -0.7197 0.2845
vn 0.6333 0.7197 0.2845
vn 0.5939 -0.7215 0.3559
vn 0.5939 0.7215 0.3559
vn 0.5402 -0.7232 0.4302
vn 0.5402 0.7232 0.4302
vn 0.4758 -0.7229 0.5010
vn 0.4758 0.7229 0.5010
vn 0.4050 -0.7221 0.5608
vn 0.4050 0.7221 0.5608
vn 0.3274 -0.7225 0.6090
vn 0.3274 0.7225 0.6090
vn 0.2441 -0.7223 0.6471
vn 0.2441 0.7223 0.6471
vn 0.1595 -0.7215 0.6738
vn 0.1595 0.7215 0.6738
vn 0.0774 -0.7204 0.6892
vn 0.0774 0.7204 0.6892
vn -0.0012 -0.7199 0.6941
vn -0.0012 0.7199 0.6941
vn -0.0820 -0.7212 0.6879
vn -0.0820 0.7212 0.6879
vn -0.1680 -0.7222 0.6710
vn -0.1680 0.7222 0.6710
vn -0.2554 -0.7227 0.6423
vn -0.2554 0.7227 0.6423
vn -0.3396 -0.7226 0.6021
vn -0.3396 0.7226 0.6021
vn -0.4164 -0.7220 0.5526
vn -0.4164 0.7220 0.5526
vn -0.4825 -0.7207 0.4979
vn -0.4825 0.7207 0.4979
vn -0.5384 -0.7212 0.4359
vn -0.5384 0.7212 0.4359
vn -0.5885 -0.7224 0.3630
vn -0.5885 0.7224 0.3630
vn -0.6317 -0.7233 0.2790
vn -0.6317 0.7233 0.2790
vn -0.6645 -0.7234 0.1874
vn -0.6645 0.7234 0.1874
vn -0.6846 -0.7230 0.0930
vn -0.6846 0.7230 0.0930
vn -0.6947 -0.7193 0.0088
vn -0.6947 0.7193 0.0088
vn -0.6950 -0.7167 -0.0577
vn -0.6950 0.7167 -0.0577
vn -0.6872 -0.7170 -0.1169
vn -0.6872 0.7170 -0.1169
vn -0.6741 -0.7172 -0.1766
vn -0.6741 0.7172 -0.1766
vn -0.6558 -0.7172 -0.2355
vn -0.6558 0.7172 -0.2355
vn -0.6327 -0.7171 -0.2923
vn -0.6327 0.7171 -0.2923
vn -0.6021 -0.7182 -0.3489
vn -0.6021 0.7182 -0.3489
vn -0.5691 -0.7168 -0.4030
vn -0.5691 0.7168 -0.4030
vn -0.5399 -0.7142 -0.4454
vn -0.5399 0.7142 -0.4454
vn -0.5238 0.7018 -0.4827
vn -0.5238 -0.7018 -0.4827
vn -0.4963 -0.7113 -0.4977
vn -0.4963 0.7113 -0.4977
vn -0.4799 -0.7105 -0.5147
vn -0.4799 0.7105 -0.5147
vn -0.4722 -0.7079 -0.5253
vn -0.4722 0.7079 -0.5253
vn -0.4755 -0.7056 -0.5254
vn -0.4755 0.7056 -0.5254
vn -0.4837 -0.7053 -0.5183
vn -0.4837 0.7053 -0.5183
vn -0.4940 -0.7047 -0.5092
vn -0.4940 0.7047 -0.5092
vn -0.5072 -0.7039 -0.4972
vn -0.5072 0.7039 -0.4972
vn -0.5245 -0.7028 -0.4807
vn -0.5245 0.7028 -0.4807
vn -0.5468 -0.7014 -0.4573
vn -0.5468 0.7014 -0.4573
vn -0.5684 -0.7019 -0.4293
vn -0.5684 0.7019 -0.4293
vn -0.5892 -0.7014 -0.4011
vn -0.5892 0.7014 -0.4011
vn -0.6099 -0.7010 -0.3696
vn -0.6099 0.7010 -0.3696
vn -0.6303 -0.7005 -0.3345
vn -0.6303 0.7005 -0.3345
vn -0.6499 -0.7001 -0.2957
vn -0.6499 0.7001 -0.2957
vn -0.6671 -0.7002 -0.2545
vn -0.6671 0.7002 -0.2545
vn -0.6837 -0.6991 -0.2094
vn -0.6837 0.6991 -0.2094
vn -0.6961 -0.6996 -0.1612
vn -0.6961 0.6996 -0.1612
vn -0.7044 -0.7002 -0.1160
vn -0.7044 0.7002 -0.1160
vn -0.7095 -0.7008 -0.0741
vn -0.7095 0.7008 -0.0741
vn -0.7119 -0.7014 -0.0356
vn -0.7119 0.7014 -0.0356
vn -0.7118 -0.7024 -0.0020
vn -0.7118 0.7024 -0.0020
vn -0.5714 -0.5784 0.5822
vn -0.5714 0.5784 0.5822
vn 0.5774 -0.5774 0.5774
vn 0.5774 -0.5774 -0.5774
vn 0.5774 0.5774 -0.5774
vn 0.5774 0.5774 0.5774
vn -0.5774 -0.5774 -0.5774
vn -0.5774 0.5774 -0.5774
vn -0.5774 -0.5774 0.5774
vn -0.5774 0.5774 0.5774
# 230 vertex normals

o TextPlus001
g TextPlus001
usemtl wire_228214153
s 2
f 1//1 2//2 3//3 4//4 
f 2//2 5//5 6//6 3//3 
f 5//5 7//7 8//8 6//6 
f 7//7 9//9 10//10 8//8 
f 9//9 11//11 12//12 10//10 
f 11//11 13//13 14//14 12//12 
f 13//13 15//15 16//16 14//14 
f 15//15 17//17 18//18 16//16 
f 17//17 19//19 20//20 18//18 
f 19//19 21//21 22//22 20//20 
f 21//21 23//23 24//24 22//22 
f 23//23 25//25 26//26 24//24 
f 25//25 27//27 28//28 26//26 
f 27//27 29//29 30//30 28//28 
f 29//29 31//31 32//32 30//30 
f 31//31 33//33 34//34 32//32 
f 33//33 35//35 36//36 34//34 
f 35//35 37//37 38//38 36//36 
f 37//37 39//39 40//40 38//38 
f 39//39 41//41 42//42 40//40 
f 41//41 43//43 44//44 42//42 
f 43//43 45//45 46//46 44//44 
f 45//45 47//47 48//48 46//46 
f 47//47 49//49 50//50 48//48 
f 49//49 51//51 52//52 50//50 
f 51//51 53//53 54//54 52//52 
f 53//53 55//55 56//56 54//54 
f 55//55 57//57 58//58 56//56 
f 57//57 59//59 60//60 58//58 
f 59//59 61//61 62//62 60//60 
f 61//61 63//63 64//64 62//62 
f 63//63 65//65 66//66 64//64 
f 65//65 67//67 68//68 66//66 
f 67//67 69//69 70//70 68//68 
f 69//69 71//71 72//72 70//70 
f 71//71 73//73 74//74 72//72 
f 73//73 75//75 76//76 74//74 
f 75//75 77//77 78//78 76//76 
f 77//77 79//79 80//80 78//78 
f 79//79 81//81 82//82 80//80 
f 81//81 83//83 84//84 82//82 
f 83//83 85//85 86//86 84//84 
f 85//85 87//87 88//88 86//86 
f 87//87 89//89 90//90 88//88 
f 89//89 91//91 92//92 90//90 
f 91//91 93//93 94//94 92//92 
f 93//93 95//95 96//96 94//94 
f 95//95 97//97 98//98 96//96 
f 97//97 99//99 100//100 98//98 
f 99//99 101//101 102//102 100//100 
f 101//101 103//103 104//104 102//102 
f 103//103 105//105 106//106 104//104 
f 105//105 107//107 108//108 106//106 
f 107//107 109//109 110//110 108//108 
s 4
f 109//109 111//111 112//112 110//110 
s 8
f 111//111 113//113 114//114 112//112 
f 113//113 115//115 116//116 114//114 
f 115//115 117//117 118//118 116//116 
f 117//117 119//119 120//120 118//118 
f 119//119 121//121 122//122 120//120 
f 121//121 123//123 124//124 122//122 
f 123//123 125//125 126//126 124//124 
f 125//125 127//127 128//128 126//126 
f 127//127 129//129 130//130 128//128 
f 129//129 131//131 132//132 130//130 
f 131//131 133//133 134//134 132//132 
f 133//133 135//135 136//136 134//134 
f 135//135 137//137 138//138 136//136 
f 137//137 139//139 140//140 138//138 
f 139//139 141//141 142//142 140//140 
f 141//141 143//143 144//144 142//142 
f 143//143 145//145 146//146 144//144 
f 145//145 147//147 148//148 146//146 
f 147//147 149//149 150//150 148//148 
f 149//149 151//151 152//152 150//150 
f 151//151 153//153 154//154 152//152 
f 153//153 155//155 156//156 154//154 
f 155//155 157//157 158//158 156//156 
f 157//157 159//159 160//160 158//158 
f 159//159 161//161 162//162 160//160 
f 161//161 163//163 164//164 162//162 
f 163//163 165//165 166//166 164//164 
f 165//165 167//167 168//168 166//166 
f 167//167 169//169 170//170 168//168 
f 169//169 171//171 172//172 170//170 
f 171//171 173//173 174//174 172//172 
f 173//173 175//175 176//176 174//174 
f 175//175 177//177 178//178 176//176 
f 177//177 179//179 180//180 178//178 
f 179//179 181//181 182//182 180//180 
f 181//181 183//183 184//184 182//182 
f 183//183 185//185 186//186 184//184 
f 185//185 187//187 188//188 186//186 
f 187//187 189//189 190//190 188//188 
f 189//189 191//191 192//192 190//190 
f 191//191 193//193 194//194 192//192 
f 193//193 195//195 196//196 194//194 
f 195//195 197//197 198//198 196//196 
f 197//197 199//199 200//200 198//198 
f 199//199 201//201 202//202 200//200 
f 201//201 203//203 204//204 202//202 
f 203//203 205//205 206//206 204//204 
f 205//205 207//207 208//208 206//206 
s 16
f 207//207 209//209 210//210 208//208 
f 209//209 211//211 212//212 210//210 
f 211//211 213//213 214//214 212//212 
f 213//213 215//215 216//216 214//214 
f 215//215 217//217 218//218 216//216 
f 217//217 219//219 220//220 218//218 
f 219//219 221//221 222//222 220//220 
s 3
f 221//221 1//1 4//4 222//222 
s 2
f 223//223 224//224 225//225 226//226 
s 4
f 224//224 227//227 228//228 225//225 
s 8
f 227//227 229//229 230//230 228//228 
s 17
f 229//229 223//223 226//226 230//230 
s 1024
f 108//108 110//110 112//112 114//114 
f 106//106 108//108 114//114 116//116 
f 104//104 106//106 116//116 118//118 
f 102//102 104//104 118//118 120//120 
f 100//100 102//102 120//120 122//122 
f 98//98 100//100 122//122 124//124 
f 96//96 98//98 124//124 126//126 
f 94//94 96//96 126//126 128//128 
f 92//92 94//94 128//128 130//130 
f 90//90 92//92 130//130 132//132 
f 88//88 90//90 132//132 134//134 
f 86//86 88//88 134//134 136//136 
f 84//84 86//86 136//136 138//138 
f 84//84 138//138 140//140 82//82 
f 82//82 140//140 142//142 80//80 
f 80//80 142//142 144//144 78//78 
f 78//78 144//144 146//146 76//76 
f 76//76 146//146 148//148 74//74 
f 74//74 148//148 150//150 72//72 
f 72//72 150//150 152//152 70//70 
f 70//70 152//152 154//154 68//68 
f 66//66 68//68 154//154 156//156 
f 64//64 66//66 156//156 158//158 
f 62//62 64//64 158//158 160//160 
f 60//60 62//62 160//160 162//162 
f 58//58 60//60 162//162 164//164 
f 56//56 58//58 164//164 54//54 
f 54//54 164//164 166//166 52//52 
f 52//52 166//166 168//168 50//50 
f 50//50 168//168 170//170 48//48 
f 48//48 170//170 172//172 46//46 
f 46//46 172//172 174//174 44//44 
f 44//44 174//174 176//176 42//42 
f 42//42 176//176 178//178 180//180 
f 40//40 42//42 180//180 182//182 
f 38//38 40//40 182//182 184//184 
f 36//36 38//38 184//184 186//186 
f 34//34 36//36 186//186 188//188 
f 32//32 34//34 188//188 190//190 
f 30//30 32//32 190//190 192//192 
f 30//30 192//192 194//194 28//28 
f 28//28 194//194 196//196 26//26 
f 26//26 196//196 198//198 24//24 
f 24//24 198//198 200//200 22//22 
f 22//22 200//200 202//202 20//20 
f 20//20 202//202 204//204 206//206 
f 18//18 20//20 206//206 208//208 
f 16//16 18//18 208//208 210//210 
f 14//14 16//16 210//210 212//212 
f 12//12 14//14 212//212 214//214 
f 10//10 12//12 214//214 216//216 
f 8//8 10//10 216//216 218//218 
f 6//6 8//8 218//218 220//220 
f 3//3 6//6 220//220 222//222 
f 3//3 222//222 4//4 
f 228//228 230//230 226//226 225//225 
f 107//107 113//113 111//111 109//109 
f 105//105 115//115 113//113 107//107 
f 103//103 117//117 115//115 105//105 
f 101//101 119//119 117//117 103//103 
f 99//99 121//121 119//119 101//101 
f 97//97 123//123 121//121 99//99 
f 95//95 125//125 123//123 97//97 
f 93//93 127//127 125//125 95//95 
f 91//91 129//129 127//127 93//93 
f 89//89 131//131 129//129 91//91 
f 87//87 133//133 131//131 89//89 
f 85//85 135//135 133//133 87//87 
f 83//83 137//137 135//135 85//85 
f 83//83 81//81 139//139 137//137 
f 81//81 79//79 141//141 139//139 
f 79//79 77//77 143//143 141//141 
f 77//77 75//75 145//145 143//143 
f 75//75 73//73 147//147 145//145 
f 73//73 71//71 149//149 147//147 
f 71//71 69//69 151//151 149//149 
f 69//69 67//67 153//153 151//151 
f 65//65 155//155 153//153 67//67 
f 63//63 157//157 155//155 65//65 
f 61//61 159//159 157//157 63//63 
f 59//59 161//161 159//159 61//61 
f 57//57 163//163 161//161 59//59 
f 55//55 53//53 163//163 57//57 
f 53//53 51//51 165//165 163//163 
f 51//51 49//49 167//167 165//165 
f 49//49 47//47 169//169 167//167 
f 47//47 45//45 171//171 169//169 
f 45//45 43//43 173//173 171//171 
f 43//43 41//41 175//175 173//173 
f 41//41 179//179 177//177 175//175 
f 39//39 181//181 179//179 41//41 
f 37//37 183//183 181//181 39//39 
f 35//35 185//185 183//183 37//37 
f 33//33 187//187 185//185 35//35 
f 31//31 189//189 187//187 33//33 
f 29//29 191//191 189//189 31//31 
f 29//29 27//27 193//193 191//191 
f 27//27 25//25 195//195 193//193 
f 25//25 23//23 197//197 195//195 
f 23//23 21//21 199//199 197//197 
f 21//21 19//19 201//201 199//199 
f 19//19 205//205 203//203 201//201 
f 17//17 207//207 205//205 19//19 
f 15//15 209//209 207//207 17//17 
f 13//13 211//211 209//209 15//15 
f 11//11 213//213 211//211 13//13 
f 9//9 215//215 213//213 11//11 
f 7//7 217//217 215//215 9//9 
f 5//5 219//219 217//217 7//7 
f 2//2 221//221 219//219 5//5 
f 2//2 1//1 221//221 
f 227//227 224//224 223//223 229//229 
# 225 polygons - 2 triangles

