g Body_01
v 0.0428868 0.074282 0.065 0.494118 0.494118 0.52549
v 0.04 0.069282 0.06 0.494118 0.494118 0.52549
v 0.08 0 0.06 0.494118 0.494118 0.52549
v 0.0857735 1.26404e-17 0.065 0.494118 0.494118 0.52549
v -0.0428868 0.074282 0.065 0.494118 0.494118 0.52549
v -0.04 0.069282 0.06 0.494118 0.494118 0.52549
v 0.04 -0.069282 0.06 0.494118 0.494118 0.52549
v 0.0428868 -0.074282 0.065 0.494118 0.494118 0.52549
v 0.04 0.069282 0.05 0.494118 0.494118 0.52549
v 0.08 0 0.05 0.494118 0.494118 0.52549
v -0.04 0.069282 0.05 0.494118 0.494118 0.52549
v -0.0857735 -2.37628e-17 0.065 0.494118 0.494118 0.52549
v -0.08 1.38778e-17 0.06 0.494118 0.494118 0.52549
v -0.04 -0.069282 0.06 0.494118 0.494118 0.52549
v -0.0428868 -0.074282 0.065 0.494118 0.494118 0.52549
v 0.04 -0.069282 0.05 0.494118 0.494118 0.52549
v -0.08 1.38778e-17 0.05 0.494118 0.494118 0.52549
v -0.04 -0.069282 0.05 0.494118 0.494118 0.52549
v 0.05 0.0866025 0.065 0.494118 0.494118 0.52549
v -0.05 0.0866025 0.065 0.494118 0.494118 0.52549
v -0.1 -1.73472e-18 0.065 0.494118 0.494118 0.52549
v -0.05 -0.0866025 0.065 0.494118 0.494118 0.52549
v 0.05 -0.0866025 0.065 0.494118 0.494118 0.52549
v 0.1 0 0.065 0.494118 0.494118 0.52549
v 0.05 -0.0866025 0 0.494118 0.494118 0.52549
v 0.1 0 0 0.494118 0.494118 0.52549
v 0.05 0.0866025 0 0.494118 0.494118 0.52549
v -0.05 -0.0866025 0 0.494118 0.494118 0.52549
v -0.1 -1.73472e-18 0 0.494118 0.494118 0.52549
v -0.05 0.0866025 0 0.494118 0.494118 0.52549
vn -0.612372 -0.353553 0.707107
vn -0 -0.707107 0.707107
vn -0.612372 0.353553 0.707107
vn -0.866025 -0.5 0
vn 0 -1 0
vn 0.612372 -0.353553 0.707107
vn 4.90654e-16 0.707107 0.707107
vn -0.866025 0.5 0
vn 0 0 1
vn 0.612372 0.353553 0.707107
vn 0.866025 -0.5 0
vn 0.866025 0.5 -0
vn 6.93889e-16 1 -0
vn 0 0 1
vn 0.866025 -0.5 -0
vn -0 -0 -1
vn -6.93889e-16 -1 0
vn -0.866025 -0.5 0
vn -0.866025 0.5 -0
vn 2.77556e-16 1 -0
vn 0.866025 0.5 -0
vt 0.0428868 0.00707107
vt 0.04 0
vt -0.04 -4.90654e-18
vt -0.0428868 0.00707107
vt 0.0428868 0.00707107
vt 0.04 0
vt -0.04 9.81308e-18
vt -0.0428868 0.00707107
vt 0.0428868 0.00707107
vt 0.04 -4.90654e-18
vt -0.04 -1.43709e-18
vt -0.0428868 0.00707107
vt -0.04 -0.015
vt 0.04 -0.015
vt 0.04 -0.005
vt -0.04 -0.005
vt 0.015 -0.04
vt 0.015 0.04
vt 0.005 0.04
vt 0.005 -0.04
vt -0.0428868 0.00707107
vt 0.0428868 0.00707107
vt 0.04 1.73472e-18
vt -0.04 -5.20417e-18
vt 0.0428868 0.00707107
vt 0.04 -4.90654e-18
vt -0.04 9.81308e-18
vt -0.0428868 0.00707107
vt -0.04 -0.015
vt 0.04 -0.015
vt 0.04 -0.005
vt -0.04 -0.005
vt 0.04 -0.069282
vt -0.04 0.069282
vt -0.08 1.38778e-17
vt 0.08 0
vt 0.04 0.069282
vt -0.04 -0.069282
vt 0.0428868 0.00707107
vt 0.04 0
vt -0.04 -1.38778e-17
vt -0.0428868 0.00707107
vt -0.04 -0.015
vt 0.04 -0.015
vt 0.04 -0.005
vt -0.04 -0.005
vt 0.04 -0.005
vt -0.04 -0.005
vt -0.04 -0.015
vt 0.04 -0.015
vt -0.04 -0.015
vt 0.04 -0.015
vt 0.04 -0.005
vt -0.04 -0.005
vt 0.05 0.0866025
vt 0.0428868 0.074282
vt 0.0857735 1.26404e-17
vt -0.05 0.0866025
vt -0.0428868 0.074282
vt -0.1 -1.73472e-18
vt -0.0857735 -2.37628e-17
vt -0.05 -0.0866025
vt -0.0428868 -0.074282
vt 0.05 -0.0866025
vt 0.0428868 -0.074282
vt 0.1 0
vt -0.05 0.015
vt 0.05 0.015
vt 0.05 -0.05
vt -0.05 -0.05
vt 0.05 0.0866025
vt -0.05 -0.0866025
vt -0.1 -1.73472e-18
vt 0.1 0
vt 0.05 -0.0866025
vt -0.05 0.0866025
vt 0.05 0.015
vt 0.05 -0.05
vt -0.05 -0.05
vt -0.05 0.015
vt 0.05 0.015
vt 0.05 -0.05
vt -0.05 -0.05
vt -0.05 0.015
vt -0.05 -0.05
vt -0.05 0.015
vt 0.05 0.015
vt 0.05 -0.05
vt 0.05 0.015
vt 0.05 -0.05
vt -0.05 -0.05
vt -0.05 0.015
vt 0.05 0.015
vt 0.05 -0.05
vt -0.05 -0.05
vt -0.05 0.015
f 1/1/1 2/2/1 3/3/1
f 3/3/1 4/4/1 1/1/1
f 5/5/2 6/6/2 2/7/2
f 2/7/2 1/8/2 5/5/2
f 4/9/3 3/10/3 7/11/3
f 7/11/3 8/12/3 4/9/3
f 9/13/4 10/14/4 3/15/4
f 3/15/4 2/16/4 9/13/4
f 11/17/5 9/18/5 2/19/5
f 2/19/5 6/20/5 11/17/5
f 5/21/6 12/22/6 13/23/6
f 13/23/6 6/24/6 5/21/6
f 8/25/7 7/26/7 14/27/7
f 14/27/7 15/28/7 8/25/7
f 10/29/8 16/30/8 7/31/8
f 7/31/8 3/32/8 10/29/8
f 16/33/9 11/34/9 17/35/9
f 11/34/9 16/33/9 10/36/9
f 10/36/9 9/37/9 11/34/9
f 17/35/9 18/38/9 16/33/9
f 15/39/10 14/40/10 13/41/10
f 13/41/10 12/42/10 15/39/10
f 17/43/11 11/44/11 6/45/11
f 6/45/11 13/46/11 17/43/11
f 13/47/12 14/48/12 18/49/12
f 18/49/12 17/50/12 13/47/12
f 16/51/13 18/52/13 14/53/13
f 14/53/13 7/54/13 16/51/13
f 19/55/14 1/56/14 4/57/14
f 20/58/14 5/59/14 1/56/14
f 1/56/14 19/55/14 20/58/14
f 21/60/14 12/61/14 5/59/14
f 5/59/14 20/58/14 21/60/14
f 21/60/14 22/62/14 15/63/14
f 15/63/14 12/61/14 21/60/14
f 22/62/14 23/64/14 8/65/14
f 8/65/14 15/63/14 22/62/14
f 23/64/14 24/66/14 4/57/14
f 4/57/14 8/65/14 23/64/14
f 4/57/14 24/66/14 19/55/14
f 24/67/15 23/68/15 25/69/15
f 25/69/15 26/70/15 24/67/15
f 27/71/16 28/72/16 29/73/16
f 28/72/16 27/71/16 26/74/16
f 26/74/16 25/75/16 28/72/16
f 29/73/16 30/76/16 27/71/16
f 22/77/17 28/78/17 25/79/17
f 25/79/17 23/80/17 22/77/17
f 21/81/18 29/82/18 28/83/18
f 28/83/18 22/84/18 21/81/18
f 29/85/19 21/86/19 20/87/19
f 20/87/19 30/88/19 29/85/19
f 19/89/20 27/90/20 30/91/20
f 30/91/20 20/92/20 19/89/20
f 24/93/21 26/94/21 27/95/21
f 27/95/21 19/96/21 24/93/21
